# xmcd CD database file
#
# Track frame offsets:
#	150
#	18055
#	41405
#	59367
#
# Disc length: 1098 seconds
#
# Revision: 1
# Processed by: cddbd v1.5.2PL0 Copyright (c) Steve Scherf et al.
# Submitted via: CDex 1.70beta3
#
DISCID=25044804
DTITLE=横須賀ゆめな - キン肉マンII世 恋の My chop !!
DYEAR=2002
DGENRE=Soundtrack
TTITLE0=恋の My chop !!
TTITLE1=メビウスの輪
TTITLE2=恋の My chop !! (カラオケ)
TTITLE3=メビウスの輪 (カラオケ)
EXTD=YEAR: 2002
EXTT0=
EXTT1=
EXTT2=
EXTT3=
PLAYORDER=
